<?xml version="1.0" encoding="UTF-8" standalone="no"?>
<svg
   version="1.1"
   id="Light Blue Circle"
   viewbox="0 0 23.041 23.041"
   width="23.041"
   height="23.041"
   sodipodi:docname="orange.svg"
   inkscape:version="1.1.2 (b8e25be8, 2022-02-05)"
   xmlns:inkscape="http://www.inkscape.org/namespaces/inkscape"
   xmlns:sodipodi="http://sodipodi.sourceforge.net/DTD/sodipodi-0.dtd"
   xmlns="http://www.w3.org/2000/svg"
   xmlns:svg="http://www.w3.org/2000/svg">
  <sodipodi:namedview
     id="namedview828"
     pagecolor="#ffffff"
     bordercolor="#666666"
     borderopacity="1.0"
     inkscape:pageshadow="2"
     inkscape:pageopacity="0.0"
     inkscape:pagecheckerboard="0"
     showgrid="false"
     inkscape:zoom="42.930379"
     inkscape:cx="15.012679"
     inkscape:cy="9.585287"
     inkscape:window-width="1440"
     inkscape:window-height="847"
     inkscape:window-x="0"
     inkscape:window-y="25"
     inkscape:window-maximized="0"
     inkscape:current-layer="Light Blue Circle" />
  <defs
     id="defs6" />
  <circle
     id="light_blue_circle"
     fill="#1DA1F2"
     cx="11.5205"
     cy="11.5205"
     r="11.5205" />
  <path
     style="fill:#ffff00;stroke-width:0.0368656"
     d="M 10.72789,23.000567 C 10.034003,22.9307 9.7713229,22.893754 9.2901313,22.798343 7.0337457,22.350948 5.0147366,21.269457 3.3753368,19.630057 0.77075951,17.02548 -0.41746627,13.337706 0.16846486,9.6772202 0.79828901,5.7425214 3.4976911,2.3606158 7.2072249,0.85881502 10.399221,-0.43346127 14.087105,-0.21440762 17.064866,1.4443411 c 4.593403,2.5587348 6.879193,7.8089744 5.606653,12.8779449 -0.507921,2.023228 -1.531063,3.826948 -3.016406,5.317689 -1.801487,1.808035 -4.083672,2.934361 -6.669041,3.291369 -0.394708,0.05451 -1.935325,0.101731 -2.258182,0.06922 z"
     id="path89" />
  <path
     style="fill:#ff6600;stroke-width:0.0368656"
     d="M 10.506696,22.960956 C 8.9542253,22.768665 7.7885353,22.446634 6.5939815,21.880036 4.2858933,20.785268 2.3609396,18.885243 1.2340552,16.58952 0.42183146,14.934834 0.05492533,13.356471 0.05571138,11.5205 0.05617057,10.447969 0.15623977,9.630639 0.40546373,8.6638441 1.4722844,4.5254117 4.8269502,1.259164 8.9634442,0.33142401 9.9376222,0.11293371 10.303245,0.07648042 11.5205,0.07648042 c 1.218235,0 1.582616,0.03639451 2.560721,0.25576564 1.919105,0.43042019 3.795589,1.42917804 5.246421,2.79240674 2.049205,1.9254703 3.283461,4.3736216 3.60091,7.1424172 0.0747,0.651563 0.07446,1.858792 -5.13e-4,2.506861 -0.111434,0.9633 -0.377006,2.053851 -0.702617,2.885246 -1.243275,3.174501 -3.82566,5.644983 -7.036795,6.731871 -0.897522,0.303788 -1.861428,0.502295 -2.709621,0.558018 -0.509852,0.0335 -1.7381,0.0409 -1.97231,0.01189 z"
     id="path965" />
  <path
     style="fill:#ff6600;stroke-width:0.0232935"
     d=""
     id="path1043" />
  <path
     style="fill:#ff6600;stroke-width:0.0232935"
     d=""
     id="path1082" />
</svg>
