<?xml version="1.0" encoding="UTF-8" standalone="no"?>
<svg
   version="1.1"
   id="Light Blue Circle"
   viewbox="0 0 23.041 23.041"
   width="23.041"
   height="23.041"
   xmlns="http://www.w3.org/2000/svg"
   xmlns:svg="http://www.w3.org/2000/svg">
  <defs
     id="defs6" />
  <circle
     id="light_blue_circle"
     fill="#1DA1F2"
     cx="11.5205"
     cy="11.5205"
     r="11.5205" />
  <path
     style="fill:#00ff00;stroke-width:0.0368656"
     d="M 10.72789,23.000567 C 10.034003,22.9307 9.7713229,22.893754 9.2901313,22.798343 7.0337457,22.350948 5.0147366,21.269457 3.3753368,19.630057 0.77075951,17.02548 -0.41746627,13.337706 0.16846486,9.6772202 0.79828901,5.7425214 3.4976911,2.3606158 7.2072249,0.85881502 10.399221,-0.43346127 14.087105,-0.21440762 17.064866,1.4443411 c 4.593403,2.5587348 6.879193,7.8089744 5.606653,12.8779449 -0.507921,2.023228 -1.531063,3.826948 -3.016406,5.317689 -1.801487,1.808035 -4.083672,2.934361 -6.669041,3.291369 -0.394708,0.05451 -1.935325,0.101731 -2.258182,0.06922 z"
     id="path89" />
</svg>
